<svg width="25" height="25" viewBox="0 0 25 25" fill="none" xmlns="http://www.w3.org/2000/svg">
<path d="M8.23674 16.7633L2 23ZM11.8946 6.86881L10.1737 8.58971C10.0333 8.73008 9.96308 8.80028 9.8831 8.85604C9.81212 8.90554 9.73556 8.94652 9.655 8.97812C9.56424 9.01372 9.4669 9.03318 9.27224 9.07212L5.23212 9.88014C4.1822 10.0901 3.65724 10.1951 3.41165 10.4719C3.19768 10.7131 3.09998 11.0358 3.14424 11.355C3.19506 11.7216 3.57361 12.1001 4.33073 12.8572L12.1429 20.6694C12.8999 21.4265 13.2786 21.805 13.645 21.8558C13.9643 21.9001 14.287 21.8025 14.5281 21.5885C14.805 21.3428 14.9099 20.8179 15.12 19.768L15.928 15.7278C15.9669 15.5332 15.9863 15.4359 16.0219 15.345C16.0536 15.2646 16.0946 15.1879 16.1441 15.117C16.1998 15.037 16.27 14.9669 16.4103 14.8264L18.1313 13.1055C18.221 13.0158 18.2659 12.9709 18.3153 12.9318C18.359 12.8969 18.4055 12.8655 18.4541 12.8378C18.5088 12.8065 18.5671 12.7815 18.6837 12.7315L21.4338 11.5529C22.2361 11.2091 22.6372 11.0372 22.8195 10.7594C22.9788 10.5164 23.0358 10.2204 22.9781 9.93562C22.9121 9.61001 22.6035 9.3014 21.9863 8.68418L16.3159 3.01382C15.6987 2.3966 15.3901 2.088 15.0645 2.02198C14.7797 1.96426 14.4837 2.02127 14.2407 2.18062C13.9629 2.36284 13.791 2.76399 13.4471 3.56629L12.2685 6.31634C12.2186 6.43301 12.1936 6.49134 12.1624 6.54604C12.1346 6.59462 12.1032 6.64104 12.0683 6.68485C12.0292 6.73418 11.9843 6.77906 11.8946 6.86881Z" fill="white"/>
<path d="M8.23674 16.7633L2 23M11.8946 6.86881L10.1737 8.58971C10.0333 8.73008 9.96308 8.80028 9.8831 8.85604C9.81212 8.90554 9.73556 8.94652 9.655 8.97812C9.56424 9.01372 9.4669 9.03318 9.27224 9.07212L5.23212 9.88014C4.1822 10.0901 3.65724 10.1951 3.41165 10.4719C3.19768 10.7131 3.09998 11.0358 3.14424 11.355C3.19506 11.7216 3.57361 12.1001 4.33073 12.8572L12.1429 20.6694C12.8999 21.4265 13.2786 21.805 13.645 21.8558C13.9643 21.9001 14.287 21.8025 14.5281 21.5885C14.805 21.3428 14.9099 20.8179 15.12 19.768L15.928 15.7278C15.9669 15.5332 15.9863 15.4359 16.0219 15.345C16.0536 15.2646 16.0946 15.1879 16.1441 15.117C16.1998 15.037 16.27 14.9669 16.4103 14.8264L18.1313 13.1055C18.221 13.0158 18.2659 12.9709 18.3153 12.9318C18.359 12.8969 18.4055 12.8655 18.4541 12.8378C18.5088 12.8065 18.5671 12.7815 18.6837 12.7315L21.4338 11.5529C22.2361 11.2091 22.6372 11.0372 22.8195 10.7594C22.9788 10.5164 23.0358 10.2204 22.9781 9.93562C22.9121 9.61001 22.6035 9.3014 21.9863 8.68418L16.3159 3.01382C15.6987 2.3966 15.3901 2.088 15.0645 2.02198C14.7797 1.96426 14.4837 2.02127 14.2407 2.18062C13.9629 2.36284 13.791 2.76399 13.4471 3.56629L12.2685 6.31634C12.2186 6.43301 12.1936 6.49134 12.1624 6.54604C12.1346 6.59462 12.1032 6.64104 12.0683 6.68485C12.0292 6.73418 11.9843 6.77906 11.8946 6.86881Z" stroke="white" stroke-width="2.4" stroke-linecap="round" stroke-linejoin="round"/>
</svg>
