<svg width="24" height="25" viewBox="0 0 24 25" fill="none" xmlns="http://www.w3.org/2000/svg">
<path d="M13.0914 2.55732C12.7011 2.251 12.5059 2.09784 12.2903 2.03896C12.1002 1.98701 11.8998 1.98701 11.7097 2.03896C11.4941 2.09784 11.2989 2.251 10.9086 2.55732L3.37266 8.47079C2.86891 8.86608 2.61704 9.06372 2.43559 9.31124C2.27486 9.5305 2.15511 9.7775 2.08226 10.0401C2 10.3366 2 10.6585 2 11.3024V19.4128C2 20.6684 2 21.2963 2.24221 21.7759C2.45526 22.1977 2.79521 22.5407 3.21336 22.7556C3.68871 23 4.311 23 5.55556 23H7.77778C8.08892 23 8.24449 23 8.36333 22.9389C8.46787 22.8852 8.55286 22.7995 8.60611 22.694C8.66667 22.5741 8.66667 22.4172 8.66667 22.1032V14.7045C8.66667 14.0768 8.66667 13.7628 8.78777 13.523C8.8943 13.3121 9.06428 13.1406 9.27334 13.0331C9.51102 12.9109 9.82211 12.9109 10.4444 12.9109H13.5556C14.1779 12.9109 14.489 12.9109 14.7267 13.0331C14.9358 13.1406 15.1057 13.3121 15.2122 13.523C15.3333 13.7628 15.3333 14.0768 15.3333 14.7045V22.1032C15.3333 22.4172 15.3333 22.5741 15.3939 22.694C15.4471 22.7995 15.5321 22.8852 15.6367 22.9389C15.7556 23 15.9111 23 16.2222 23H18.4444C19.689 23 20.3113 23 20.7867 22.7556C21.2048 22.5407 21.5448 22.1977 21.7578 21.7759C22 21.2963 22 20.6684 22 19.4128V11.3024C22 10.6585 22 10.3366 21.9178 10.0401C21.8449 9.7775 21.7251 9.5305 21.5644 9.31124C21.383 9.06372 21.1311 8.86608 20.6273 8.47079L13.0914 2.55732Z" stroke="#262626" stroke-width="2.4" stroke-linecap="round" stroke-linejoin="round"/>
</svg>
