<svg width="25" height="25" viewBox="0 0 25 25" fill="none" xmlns="http://www.w3.org/2000/svg">
<path fill-rule="evenodd" clip-rule="evenodd" d="M22.3287 0.988515C21.0106 -0.329503 18.8737 -0.329507 17.5556 0.988515L1.62837 16.9158C1.15722 17.387 0.836067 17.9871 0.705398 18.6404L0.0449443 21.9427C-0.26993 23.517 1.11814 24.9051 2.69251 24.5903L5.99477 23.9298C6.64813 23.7992 7.24821 23.478 7.71936 23.0068L23.6466 7.0795C24.9646 5.76148 24.9646 3.62456 23.6466 2.30653L22.3287 0.988515ZM19.1466 2.5795C19.586 2.14017 20.2983 2.14017 20.7377 2.5795L22.0556 3.89753C22.495 4.33686 22.495 5.04917 22.0556 5.48852L19.0501 8.49405L16.1412 5.58504L19.1466 2.5795ZM14.5501 7.17604L3.21936 18.5068C3.06231 18.6639 2.95526 18.8639 2.9117 19.0817L2.25125 22.3839L5.55351 21.7234C5.7713 21.6799 5.97132 21.5729 6.12837 21.4158L17.4591 10.085L14.5501 7.17604Z" fill="#262626"/>
</svg>
