<svg width="32" height="25" viewBox="0 0 32 25" fill="none" xmlns="http://www.w3.org/2000/svg">
<path d="M19.0929 6.42207L18.484 5.81318C15.9411 3.27032 14.6697 1.99889 13.2913 2C12.841 2.00037 12.3955 2.0922 11.9819 2.26994C10.7154 2.81407 10.0505 4.48469 8.72077 7.82593L8.62453 8.06776C8.24752 9.015 8.05903 9.48859 7.75633 9.87067C7.52667 10.1605 7.25026 10.4101 6.93849 10.6089C6.52751 10.8711 6.03713 11.0102 5.05635 11.2886C3.53552 11.7202 2.7751 11.9361 2.43763 12.3963C2.18685 12.7383 2.07631 13.1634 2.12869 13.5842C2.19918 14.1506 2.75811 14.7095 3.876 15.8275L9.0786 21.0301C10.1965 22.1479 10.7554 22.7068 11.3217 22.7772C11.7426 22.8298 12.1676 22.7191 12.5097 22.4683C12.9699 22.1309 13.1858 21.3704 13.6174 19.8496C13.8958 18.8689 14.0349 18.3785 14.2971 17.9675C14.4959 17.6557 14.7455 17.3794 15.0353 17.1497C15.4174 16.847 15.8911 16.6584 16.8382 16.2815L17.08 16.1853C20.4213 14.8554 22.092 14.1905 22.6361 12.9241C22.8138 12.5104 22.9057 12.0649 22.906 11.6147C22.9072 10.2363 21.6356 8.96492 19.0929 6.42207Z" fill="#262626" stroke="#262626" stroke-width="2.4"/>
<path d="M2 22.9052L6.47676 18.4283" stroke="#262626" stroke-width="2.4" stroke-linecap="round"/>
<path d="M30 6H25" stroke="#262626" stroke-width="2.4" stroke-linecap="round"/>
<path d="M30 14H26" stroke="#262626" stroke-width="2.4" stroke-linecap="round"/>
<path d="M30 21.001L18.0427 21.0073" stroke="#262626" stroke-width="2.4" stroke-linecap="round"/>
</svg>
