<svg width="23" height="23" viewBox="0 0 23 23" fill="none" xmlns="http://www.w3.org/2000/svg">
<path fill-rule="evenodd" clip-rule="evenodd" d="M16.1956 6.89999C16.1956 4.36309 14.0896 2.29998 11.5 2.29998C8.91038 2.29998 6.80441 4.36309 6.80441 6.89999C6.80441 9.4369 8.91038 11.5 11.5 11.5C14.0896 11.5 16.1956 9.4369 16.1956 6.89999ZM20.6376 23H18.5434C17.8954 23 17.3695 22.4848 17.3695 21.85C17.3695 21.2152 17.8954 20.7 18.5434 20.7H19.047C19.8593 20.7 20.4592 19.8984 20.1516 19.1613C18.73 15.7527 15.3915 13.8 11.5 13.8C7.60853 13.8 4.26996 15.7527 2.84837 19.1613C2.54081 19.8984 3.14069 20.7 3.95303 20.7H4.45661C5.1046 20.7 5.63051 21.2152 5.63051 21.85C5.63051 22.4848 5.1046 23 4.45661 23H2.36238C0.895006 23 -0.260109 21.6855 0.0509736 20.2814C0.90557 16.4185 3.57386 13.5677 7.0885 12.2739C5.48496 11.0101 4.45661 9.0735 4.45661 6.89999C4.45661 2.81633 8.07693 -0.438177 12.344 0.0482734C15.4361 0.400174 17.9975 2.81397 18.4612 5.83043C18.8603 8.43059 17.7745 10.8054 15.9115 12.2739C19.4261 13.5677 22.0944 16.4185 22.949 20.2814C23.2601 21.6855 22.105 23 20.6376 23ZM15.0217 21.85C15.0217 22.4848 14.4958 23 13.8478 23H9.1522C8.50421 23 7.9783 22.4848 7.9783 21.85C7.9783 21.2152 8.50421 20.7 9.1522 20.7H13.8478C14.4958 20.7 15.0217 21.2152 15.0217 21.85Z" fill="#262626"/>
</svg>
